# xmcd CD database file
#
# Track frame offsets:
#	187
#	25162
#	46650
#	71587
#
# Disc length: 1240 seconds
#
# Revision: 2
# Processed by: cddbd v1.5PL3 Copyright (c) Steve Scherf et al.
# Submitted via: CDex 1.51
#
DISCID=2904d604
DTITLE=Ｋｉｒｏｒｏ - 青のじゅもん
DYEAR=2002
DGENRE=
TTITLE0=青のじゅもん（オリジナル・カラオケ）
TTITLE1=春の風
TTITLE2=青のじゅもん（オリジナル・カラオケ）
TTITLE3=春の風（オリジナル・カラオケ）
EXTD=YEAR: 2002.02.21
EXTT0=
EXTT1=
EXTT2=
EXTT3=
PLAYORDER=
